#!OML:ASF F:\VICON\USERDATA\INSTALL\rory3\rory3.ASF
:FULLY-SPECIFIED
:DEGREES
1886
root -2.23447 18.5376 -0.275558 -3.05378 -4.72029 2.94542
lowerback 11.8599 0.891199 -5.69745
upperback 0.712474 0.334692 -1.32648
thorax -5.93882 0.296496 1.75971
lowerneck -13.9782 -0.854612 -8.76479
upperneck 6.28145 -0.388692 8.74422
head 4.1832 0.10452 4.11746
rclavicle -5.01931e-015 4.37326e-015
rhumerus -45.1477 19.9949 -93.1375
rradius 117.846
rwrist -0.353155
rhand -40.8528 12.9228
rfingers 7.12502
rthumb -13.7898 -16.6001
lclavicle -5.01931e-015 4.37326e-015
lhumerus -17.2082 -29.9547 90.667
lradius 120.939
lwrist 22.8027
lhand -23.3284 10.1843
lfingers 7.12502
lthumb 3.12595 40.1411
rfemur -20.7941 13.5067 12.4533
rtibia 62.9121
rfoot -14.1953 -17.654
rtoes -3.0235
lfemur -8.2375 -4.58342 -24.5586
ltibia 38.9543
lfoot -11.7652 -2.90658
ltoes -16.1405
1887
root -2.25113 18.6429 -0.254208 -2.63156 -4.59057 2.81477
lowerback 11.4308 0.798864 -5.47765
upperback 0.580165 0.268625 -1.30425
thorax -5.83241 0.258662 1.67261
lowerneck -14.0701 -0.79757 -8.66993
upperneck 6.47708 -0.309319 8.51537
head 4.2495 0.134083 4.03791
rclavicle 0 7.15625e-015
rhumerus -45.8502 20.0394 -93.8209
rradius 118.103
rwrist -0.473648
rhand -40.9303 13.2208
rfingers 7.12502
rthumb -13.8645 -16.2971
lclavicle 0 7.15625e-015
lhumerus -17.7918 -30.1918 91.0623
lradius 121.617
lwrist 22.8812
lhand -23.531 10.3724
lfingers 7.12502
lthumb 2.93033 40.332
rfemur -20.7988 13.8948 12.7527
rtibia 61.8059
rfoot -13.6218 -17.6787
rtoes -2.96187
lfemur -8.33323 -5.07397 -24.3109
ltibia 38.2353
lfoot -10.3687 -2.7957
ltoes -16.2596
1888
root -2.268 18.7582 -0.22881 -2.18023 -4.46275 2.53346
lowerback 10.9137 0.699858 -5.07175
upperback 0.445349 0.222845 -1.24858
thorax -5.67952 0.225352 1.51271
lowerneck -14.0076 -0.70963 -8.54573
upperneck 6.55402 -0.198787 8.2773
head 4.25208 0.176107 3.95052
rclavicle 4.47266e-015 -2.38542e-015
rhumerus -46.4405 20.0659 -94.4572
rradius 118.327
rwrist -0.603819
rhand -41.0158 13.1358
rfingers 7.12502
rthumb -13.9469 -16.3765
lclavicle 4.47266e-015 -2.38542e-015
lhumerus -18.4715 -30.4534 91.5395
lradius 122.273
lwrist 22.9841
lhand -23.4598 10.6564
lfingers 7.12502
lthumb 2.99906 40.615
rfemur -20.7487 14.3303 13.2293
rtibia 60.551
rfoot -12.8732 -17.2651
rtoes -3.13591
lfemur -8.43386 -5.40423 -23.881
ltibia 37.5464
lfoot -8.90807 -2.70535
ltoes -16.6196
1889
root -2.28792 18.8704 -0.206725 -1.71815 -4.43235 1.90749
lowerback 10.4228 0.600697 -4.37577
upperback 0.296608 0.212403 -1.06269
thorax -5.55672 0.20448 1.32005
lowerneck -13.9045 -0.619327 -8.43839
upperneck 6.67778 -0.0855253 8.02666
head 4.26259 0.217354 3.86239
rclavicle 1.03617e-014 -8.74653e-015
rhumerus -47.0364 20.1608 -95.0131
rradius 118.643
rwrist -0.881159
rhand -40.7411 12.7917
rfingers 7.12502
rthumb -13.6821 -16.7385
lclavicle 1.03617e-014 -8.74653e-015
lhumerus -19.3162 -30.6422 92.0699
lradius 122.866
lwrist 22.9753
lhand -23.365 10.6383
lfingers 7.12502
lthumb 3.09064 40.5957
rfemur -20.7113 14.8869 14.0961
rtibia 59.202
rfoot -11.8203 -16.6252
rtoes -3.49888
lfemur -8.58666 -5.50966 -23.0155
ltibia 36.8794
lfoot -7.34177 -2.66548
ltoes -17.5154
1890
root -2.30723 18.9861 -0.18393 -1.2706 -4.44071 1.26997
lowerback 9.87636 0.502817 -3.65769
upperback 0.278502 0.204611 -0.883127
thorax -5.26491 0.180164 1.10808
lowerneck -14.0392 -0.531019 -8.29072
upperneck 6.70881 0.0389343 7.78465
head 4.28289 0.270398 3.77214
rclavicle -2.45996e-015 0
rhumerus -47.3553 20.3132 -95.4467
rradius 119.007
rwrist -1.20045
rhand -40.5072 12.8367
rfingers 7.12502
rthumb -13.4567 -16.7086
lclavicle -2.45996e-015 0
lhumerus -19.982 -30.7981 92.4456
lradius 123.384
lwrist 22.9401
lhand -23.39 10.2118
lfingers 7.12502
lthumb 3.06646 40.1695
rfemur -20.6396 15.5179 14.9552
rtibia 57.7644
rfoot -10.4401 -15.8362
rtoes -4.13765
lfemur -8.72906 -5.65735 -22.137
ltibia 36.1983
lfoot -5.80398 -2.49358
ltoes -18.2831
1891
root -2.3234 19.103 -0.159376 -0.838606 -4.38119 0.952264
lowerback 9.40599 0.426454 -3.16374
upperback 0.205442 0.180074 -0.829986
thorax -5.07392 0.15484 0.89104
lowerneck -14.0493 -0.456775 -8.23605
upperneck 6.65565 0.138354 7.71593
head 4.25989 0.317009 3.74828
rclavicle -1.32689e-014 2.78299e-015
rhumerus -47.6805 20.3744 -95.8001
rradius 119.404
rwrist -1.56768
rhand -40.2588 13.5868
rfingers 7.12502
rthumb -13.2173 -15.9742
lclavicle -1.32689e-014 2.78299e-015
lhumerus -20.8345 -31.0162 92.9071
lradius 123.895
lwrist 22.8699
lhand -23.3451 9.96443
lfingers 7.12502
lthumb 3.1098 39.9215
rfemur -20.5934 16.0739 15.4222
rtibia 56.3221
rfoot -8.91161 -14.6537
rtoes -6.77435
lfemur -8.90294 -5.95636 -21.6323
ltibia 35.5387
lfoot -4.29311 -2.10546
ltoes -16.8082
1892
root -2.3412 19.2102 -0.139608 -0.471666 -4.27376 0.782241
lowerback 9.09135 0.372559 -2.86068
upperback 0.065036 0.152512 -0.785073
thorax -5.04189 0.135431 0.771849
lowerneck -13.9264 -0.40699 -8.24547
upperneck 6.67222 0.199141 7.69633
head 4.23998 0.343216 3.74723
rclavicle -1.18525e-014 -6.36111e-015
rhumerus -48.0325 20.4157 -96.048
rradius 119.797
rwrist -1.93105
rhand -39.8936 14.096
rfingers 7.12502
rthumb -12.8652 -15.4875
lclavicle -1.18525e-014 -6.36111e-015
lhumerus -21.8936 -31.2666 93.502
lradius 124.348
lwrist 22.6159
lhand -23.3761 9.80501
lfingers 7.12502
lthumb 3.07992 39.7625
rfemur -20.5544 16.5522 15.7193
rtibia 54.9424
rfoot -7.62171 -13.0484
rtoes -10.1795
lfemur -9.0596 -6.15775 -21.286
ltibia 34.8979
lfoot -2.81197 -1.62636
ltoes -14.7467
1893
root -2.36277 19.3019 -0.129115 -0.226149 -4.15126 0.736063
lowerback 8.89493 0.297391 -2.77267
upperback 0.00701468 0.0705124 -0.73301
thorax -4.98905 0.0933945 0.787813
lowerneck -13.8664 -0.328657 -8.19162
upperneck 6.63444 0.301686 7.59408
head 4.21023 0.388064 3.71259
rclavicle -4.32357e-015 2.3059e-014
rhumerus -48.2531 20.7426 -96.3196
rradius 120.184
rwrist -2.51542
rhand -39.7947 14.1719
rfingers 7.12502
rthumb -12.7699 -15.4176
lclavicle -4.32357e-015 2.3059e-014
lhumerus -22.8514 -31.4464 94.0214
lradius 124.773
lwrist 22.3016
lhand -23.4638 9.54973
lfingers 7.12502
lthumb 2.99522 39.5084
rfemur -20.4687 16.9909 15.9005
rtibia 53.642
rfoot -6.34329 -11.3814
rtoes -11.9614
lfemur -9.13545 -6.23443 -21.0719
ltibia 34.3032
lfoot -1.42202 -1.20569
ltoes -13.9638
1894
root -2.38519 19.3869 -0.12188 0.0325256 -4.063 0.691191
lowerback 8.67885 0.225108 -2.72234
upperback -0.0312878 -0.00993359 -0.663613
thorax -4.90461 0.0526878 0.842405
lowerneck -13.7485 -0.213835 -8.15979
upperneck 6.43769 0.455893 7.52495
head 4.11835 0.459431 3.69326
rclavicle -6.4605e-015 -6.36111e-015
rhumerus -48.4473 21.2778 -96.6298
rradius 120.569
rwrist -3.2184
rhand -40.2524 14.2594
rfingers 7.12502
rthumb -13.2111 -15.302
lclavicle -6.4605e-015 -6.36111e-015
lhumerus -23.8153 -31.6085 94.5093
lradius 125.169
lwrist 21.7766
lhand -23.5631 9.42926
lfingers 7.12502
lthumb 2.8993 39.3893
rfemur -20.4353 17.5121 16.0715
rtibia 52.3799
rfoot -5.00385 -9.79546
rtoes -12.6306
lfemur -9.30539 -6.40573 -20.8331
ltibia 33.8387
lfoot -0.157562 -0.649193
ltoes -12.7479
1895
root -2.40344 19.466 -0.111387 0.364445 -3.95175 0.45462
lowerback 8.37227 0.133502 -2.41983
upperback -0.0648081 -0.0866354 -0.554969
thorax -4.76422 0.00761385 0.79502
lowerneck -13.6652 -0.140487 -8.13447
upperneck 6.23482 0.555911 7.47936
head 4.03483 0.506069 3.67863
rclavicle -3.55328e-015 1.72943e-014
rhumerus -48.4976 21.6999 -96.7052
rradius 121.008
rwrist -3.53974
rhand -40.2883 14.1411
rfingers 7.12502
rthumb -13.2456 -15.418
lclavicle -3.55328e-015 1.72943e-014
lhumerus -24.7504 -31.7331 95.0151
lradius 125.428
lwrist 20.9865
lhand -23.5356 9.35818
lfingers 7.12502
lthumb 2.92585 39.3179
rfemur -20.4422 18.0248 16.4333
rtibia 51.1294
rfoot -3.70422 -8.23588
rtoes -13.664
lfemur -9.60762 -6.78471 -20.3895
ltibia 33.5382
lfoot 0.793236 0.264038
ltoes -12.4114
1896
root -2.41733 19.5323 -0.0996321 0.602641 -3.7785 0.0617754
lowerback 8.11067 0.0489683 -1.87533
upperback -0.0127993 -0.132936 -0.437704
thorax -4.56163 -0.0287279 0.616178
lowerneck -13.8071 -0.138687 -7.96489
upperneck 6.21267 0.554997 7.30895
head 4.05174 0.5025 3.59826
rclavicle -6.58474e-015 7.7526e-015
rhumerus -48.291 21.8906 -96.4654
rradius 121.444
rwrist -3.48122
rhand -39.7522 13.7098
rfingers 7.12502
rthumb -12.7289 -15.8822
lclavicle -6.58474e-015 7.7526e-015
lhumerus -25.5473 -31.9069 95.4093
lradius 125.61
lwrist 20.5179
lhand -23.4901 9.23529
lfingers 7.12502
lthumb 2.96978 39.1944
rfemur -20.2989 18.4133 16.9862
rtibia 49.8772
rfoot -2.57771 -6.59645
rtoes -14.6657
lfemur -9.80854 -7.13767 -19.8442
ltibia 33.4081
lfoot 1.30812 1.22022
ltoes -13.7217
1897
root -2.43004 19.5831 -0.0897624 0.798753 -3.60427 -0.20416
lowerback 7.90584 -0.0249929 -1.44356
upperback 0.0265575 -0.182419 -0.356225
thorax -4.40498 -0.063176 0.463449
lowerneck -13.9357 -0.14834 -7.81723
upperneck 6.2286 0.53772 7.16188
head 4.07932 0.491191 3.52799
rclavicle 7.15625e-015 1.19271e-014
rhumerus -48.0612 22.2377 -96.2312
rradius 121.833
rwrist -3.92347
rhand -39.4184 13.739
rfingers 7.12502
rthumb -12.4071 -15.8728
lclavicle 7.15625e-015 1.19271e-014
lhumerus -26.413 -32.0438 95.809
lradius 125.778
lwrist 20.2429
lhand -23.6191 9.03438
lfingers 7.12502
lthumb 2.84521 38.9951
rfemur -20.1254 18.6996 17.3916
rtibia 48.6478
rfoot -1.63555 -4.72478
rtoes -15.7287
lfemur -9.98735 -7.29064 -19.4645
ltibia 33.4187
lfoot 1.49094 2.06931
ltoes -14.7888
1898
root -2.44521 19.6253 -0.0825886 1.012 -3.43744 -0.507674
lowerback 7.75842 -0.0956921 -1.05479
upperback 0.00350084 -0.233535 -0.236377
thorax -4.34596 -0.0957829 0.374632
lowerneck -13.8536 -0.150845 -7.67383
upperneck 6.13366 0.51943 7.02006
head 4.03899 0.476504 3.45685
rclavicle 2.83268e-015 2.32578e-014
rhumerus -47.9091 22.7433 -96.0571
rradius 122.254
rwrist -4.78149
rhand -39.6579 13.9891
rfingers 7.12502
rthumb -12.638 -15.6086
lclavicle 2.83268e-015 2.32578e-014
lhumerus -27.3894 -32.1219 96.2805
lradius 125.941
lwrist 19.9174
lhand -23.6011 8.68006
lfingers 7.12502
lthumb 2.86264 38.6406
rfemur -20.0009 18.9402 17.8568
rtibia 47.4878
rfoot -0.987764 -3.18664
rtoes -18.0195
lfemur -10.2844 -7.34673 -19.032
ltibia 33.6555
lfoot 1.43384 2.89533
ltoes -14.9216
1899
root -2.46242 19.6644 -0.0767882 1.18488 -3.28227 -0.709959
lowerback 7.60027 -0.147969 -0.822054
upperback -0.00869222 -0.275906 -0.132538
thorax -4.2696 -0.120921 0.355605
lowerneck -13.6903 -0.123708 -7.64237
upperneck 6.03224 0.53985 7.04857
head 3.98019 0.486733 3.45954
rclavicle 3.27995e-015 -5.96354e-015
rhumerus -47.6483 23.1059 -95.6797
rradius 122.667
rwrist -5.14639
rhand -39.6328 14.0734
rfingers 7.12502
rthumb -12.6138 -15.5257
lclavicle 3.27995e-015 -5.96354e-015
lhumerus -28.3311 -32.1489 96.7436
lradius 126.056
lwrist 19.6633
lhand -23.3228 8.48891
lfingers 7.12502
lthumb 3.13134 38.4457
rfemur -19.865 19.2099 18.2196
rtibia 46.3884
rfoot 0.0671747 -1.66152
rtoes -17.564
lfemur -10.5985 -7.43694 -18.7336
ltibia 34.0911
lfoot 0.960794 3.84438
ltoes -14.4297
